<svg width="257" height="60" viewBox="0 0 257 60" fill="none" xmlns="http://www.w3.org/2000/svg">
<path d="M17.3885 40.5834C2.36271 39.6249 -2.10303 26.2107 0.865651 13.4581C3.32542 2.88956 12.8294 -1.16905 22.8933 0.285606C30.9002 1.44481 35.8367 5.95579 37.7028 13.8186C37.7395 13.9712 37.6787 14.0504 37.5204 14.0561L35.3405 14.1451C35.1681 14.1508 35.062 14.0702 35.0225 13.9034C33.3515 7.00189 28.8928 3.26843 21.6464 2.70297C16.2604 2.27887 9.97951 3.17371 6.44253 7.58857C2.49418 12.5251 2.30334 20.7568 3.59684 26.8002C5.74277 36.8513 14.5386 38.9591 23.4446 37.7546C29.7764 36.8979 33.4915 32.7248 34.9377 26.7917C34.951 26.7351 34.9834 26.6846 35.0296 26.6484C35.0757 26.6123 35.133 26.5925 35.1921 26.5924H37.5204C37.6505 26.5924 37.7013 26.656 37.6731 26.7832C35.4678 37.0761 27.2445 41.2068 17.3885 40.5834Z" fill="#DF1C26"/>
<path d="M43.5577 0.521224L41.0386 0.508033C40.9754 0.507702 40.9238 0.558699 40.9235 0.621939L40.9113 2.94596C40.911 3.0092 40.962 3.06073 41.0253 3.06107L43.5444 3.07426C43.6076 3.07459 43.6591 3.02359 43.6595 2.96035L43.6716 0.636328C43.672 0.573089 43.621 0.521555 43.5577 0.521224Z" fill="#242021"/>
<path d="M100.291 0.514617H97.8398C97.7274 0.514617 97.6362 0.605749 97.6362 0.718176V39.9642C97.6362 40.0766 97.7274 40.1677 97.8398 40.1677H100.291C100.404 40.1677 100.495 40.0766 100.495 39.9642V0.718176C100.495 0.605749 100.404 0.514617 100.291 0.514617Z" fill="#DF1C26"/>
<path d="M77.6019 40.4816C70.829 39.7903 66.0028 36.0243 64.6414 29.2599C62.3216 17.733 67.8476 7.99146 80.719 8.51734C88.5393 8.83541 94.3113 12.559 95.6939 20.8501C95.7165 20.9915 95.6571 21.0636 95.5157 21.0664L93.1705 21.1173C93.0957 21.118 93.0233 21.0916 92.967 21.0432C92.9107 20.9947 92.8745 20.9275 92.8651 20.8543C91.7455 12.542 84.5783 10.888 77.5086 11.5496C70.8375 12.1731 67.6652 15.9051 67.063 22.4235C66.4099 29.4805 68.4498 36.2024 76.3296 37.5171C83.9124 38.7809 91.3426 36.9488 92.9118 28.276C92.9485 28.0583 93.0786 27.9509 93.3019 27.9537L95.5157 27.9792C95.6232 27.9792 95.6698 28.0329 95.6557 28.1403C94.2434 37.831 86.6224 41.4019 77.6019 40.4816Z" fill="#DF1C26"/>
<path d="M105.715 24.7815C105.749 30.7613 107.899 35.9819 114.316 37.3433C121.797 38.9294 130.584 37.2075 131.64 28.0937C131.648 28.0217 131.683 27.9554 131.738 27.9087C131.794 27.8621 131.865 27.8387 131.937 27.8435L134.202 27.9877C134.352 27.9961 134.415 28.0739 134.393 28.2209C132.968 38.0388 125.075 41.351 116.191 40.5367C110.198 39.9854 105.656 36.5629 103.841 30.8206C101.92 24.7518 102.738 15.8457 108.23 11.6345C114.142 7.10086 125.376 7.41893 130.652 12.8686C133.727 16.0408 134.495 20.0019 134.728 24.3701C134.73 24.3968 134.726 24.4235 134.717 24.4487C134.708 24.4738 134.694 24.4969 134.675 24.5163C134.657 24.5358 134.635 24.5514 134.61 24.5619C134.586 24.5725 134.559 24.578 134.533 24.5779H105.915C105.782 24.5779 105.715 24.6458 105.715 24.7815ZM105.881 22.0333H131.717C131.718 22.0333 131.719 22.0329 131.72 22.0321C131.721 22.0313 131.721 22.0302 131.721 22.0291V22.0121C131.721 20.6126 131.428 19.2267 130.859 17.9336C130.29 16.6406 129.456 15.4657 128.404 14.4761C127.353 13.4864 126.105 12.7014 124.731 12.1658C123.357 11.6302 121.885 11.3546 120.398 11.3546H117.2C114.197 11.3546 111.317 12.4774 109.193 14.4761C107.069 16.4748 105.876 19.1856 105.876 22.0121V22.0291C105.876 22.0302 105.877 22.0313 105.878 22.0321C105.878 22.0329 105.88 22.0333 105.881 22.0333Z" fill="#DF1C26"/>
<path d="M43.5553 9.0008H41.0277C40.9644 9.0008 40.9132 9.05208 40.9132 9.11532V40.0659C40.9132 40.1292 40.9644 40.1805 41.0277 40.1805H43.5553C43.6186 40.1805 43.6698 40.1292 43.6698 40.0659V9.11532C43.6698 9.05208 43.6186 9.0008 43.5553 9.0008Z" fill="#DF1C26"/>
<path d="M49.5478 14.2935C49.5487 14.3165 49.5567 14.3388 49.5706 14.3574C49.5845 14.3759 49.6036 14.3896 49.6252 14.3967C49.6467 14.4037 49.6697 14.4037 49.6909 14.3966C49.712 14.3895 49.7302 14.3757 49.7429 14.3572C53.7124 8.92023 59.0349 9.00929 65.1673 9.09411C65.3087 9.09411 65.3822 9.16479 65.3878 9.30616L65.4472 11.4054C65.45 11.5581 65.3765 11.6316 65.2267 11.626C61.8791 11.4903 59.565 11.568 58.2842 11.8592C51.91 13.2969 49.8447 18.4031 49.675 24.5016C49.528 29.6445 49.47 34.7916 49.5011 39.943C49.5011 40.09 49.4276 40.1635 49.2806 40.1635H47.0626C46.8505 40.1635 46.7445 40.0575 46.7445 39.8454V9.3104C46.7445 9.17186 46.8152 9.10118 46.9566 9.09835L49.2637 9.09411C49.4078 9.09411 49.4814 9.16621 49.4842 9.3104L49.5478 14.2935Z" fill="#DF1C26"/>
<path d="M7.76074 49.2892C7.92465 49.4063 8.01441 49.5155 8.03002 49.617C8.05344 49.7185 8.01441 49.8394 7.91294 49.9799L5.16162 54.1596V56.9109C5.16162 57.0124 5.14991 57.106 5.1265 57.1919C5.10308 57.27 5.05235 57.3285 4.9743 57.3675C4.90405 57.4144 4.79088 57.4378 4.63477 57.4378C4.47867 57.4378 4.36159 57.4144 4.28354 57.3675C4.21329 57.3285 4.16256 57.2661 4.13134 57.1802C4.10793 57.0943 4.09622 56.9968 4.09622 56.8875V54.1479L1.33319 50.0033C1.23953 49.8629 1.2044 49.7419 1.22782 49.6404C1.25123 49.5311 1.3449 49.418 1.50881 49.3009C1.62588 49.2228 1.72345 49.176 1.8015 49.1604C1.88736 49.137 1.96541 49.1487 2.03565 49.1955C2.1059 49.2345 2.17224 49.3087 2.23469 49.418L4.62307 53.1644L7.02315 49.418C7.0934 49.3087 7.15974 49.2345 7.22219 49.1955C7.29243 49.1565 7.37048 49.1448 7.45634 49.1604C7.5422 49.1682 7.64366 49.2111 7.76074 49.2892Z" fill="black"/>
<path d="M10.2496 57.4963C9.8671 57.4963 9.50026 57.4222 9.14902 57.2739C8.8056 57.1256 8.49729 56.9226 8.22411 56.6651C7.95093 56.3997 7.73629 56.0914 7.58019 55.7401C7.42408 55.3889 7.34603 55.0065 7.34603 54.5928C7.34603 54.1869 7.42018 53.8123 7.56848 53.4688C7.71678 53.1176 7.92361 52.8093 8.18899 52.5439C8.45436 52.2786 8.75877 52.0717 9.10219 51.9234C9.45343 51.7673 9.82807 51.6893 10.2261 51.6893C10.7647 51.6893 11.2486 51.818 11.6779 52.0756C12.115 52.3254 12.4623 52.6688 12.7199 53.1059C12.9775 53.543 13.1062 54.0347 13.1062 54.5811C13.1062 55.0104 13.0282 55.4045 12.8721 55.7636C12.716 56.1148 12.5052 56.4192 12.2399 56.6768C11.9745 56.9343 11.6701 57.1373 11.3267 57.2856C10.9832 57.4261 10.6242 57.4963 10.2496 57.4963ZM10.2261 56.4777C10.554 56.4777 10.8584 56.3958 11.1393 56.2319C11.4203 56.068 11.6467 55.8416 11.8184 55.5528C11.9901 55.264 12.076 54.9362 12.076 54.5694C12.076 54.2025 11.994 53.8786 11.8301 53.5976C11.674 53.3166 11.4555 53.0981 11.1745 52.942C10.8935 52.7859 10.5735 52.7078 10.2144 52.7078C9.871 52.7078 9.55879 52.7898 9.27781 52.9537C9.00463 53.1176 8.78218 53.3401 8.61047 53.621C8.44656 53.902 8.36461 54.222 8.36461 54.5811C8.36461 54.9557 8.45046 55.2874 8.62218 55.5762C8.79389 55.8572 9.02024 56.0797 9.30122 56.2436C9.59002 56.3997 9.89832 56.4777 10.2261 56.4777Z" fill="black"/>
<path d="M16.4848 57.4378C16.1413 57.4378 15.8213 57.3753 15.5247 57.2504C15.2359 57.1256 14.9823 56.9499 14.7637 56.7236C14.5452 56.4972 14.3735 56.2241 14.2486 55.9041C14.1315 55.584 14.073 55.2211 14.073 54.8152V52.2747C14.073 52.1654 14.0847 52.0717 14.1081 51.9937C14.1315 51.9156 14.1783 51.8571 14.2486 51.818C14.3266 51.7712 14.4398 51.7478 14.5881 51.7478C14.7364 51.7478 14.8457 51.7712 14.9159 51.818C14.994 51.8649 15.0447 51.9273 15.0681 52.0054C15.0915 52.0834 15.1032 52.1771 15.1032 52.2864V54.8269C15.1032 55.147 15.1579 55.4318 15.2671 55.6816C15.3764 55.9236 15.5403 56.1109 15.7589 56.2436C15.9852 56.3763 16.2584 56.4426 16.5784 56.4426C16.9062 56.4426 17.1872 56.3763 17.4214 56.2436C17.6633 56.1109 17.8468 55.9236 17.9716 55.6816C18.1043 55.4318 18.1707 55.147 18.1707 54.8269V52.2747C18.1707 52.1654 18.1824 52.0717 18.2058 51.9937C18.2292 51.9156 18.276 51.8571 18.3463 51.818C18.4243 51.7712 18.5375 51.7478 18.6858 51.7478C18.8341 51.7478 18.9434 51.7712 19.0136 51.818C19.0917 51.8649 19.1385 51.9273 19.1541 52.0054C19.1775 52.0834 19.1892 52.1771 19.1892 52.2864V56.9343C19.1892 57.028 19.1775 57.1139 19.1541 57.1919C19.1385 57.2622 19.0917 57.3168 19.0136 57.3558C18.9434 57.3948 18.8341 57.4144 18.6858 57.4144C18.5765 57.4144 18.4868 57.4026 18.4165 57.3792C18.3541 57.3558 18.3073 57.3246 18.276 57.2856C18.2448 57.2465 18.2214 57.2036 18.2058 57.1568C18.198 57.1021 18.1941 57.0475 18.1941 56.9929L18.2409 56.4894C18.1629 56.5831 18.0692 56.6846 17.9599 56.7938C17.8507 56.9031 17.7219 57.0085 17.5736 57.11C17.4331 57.2036 17.2731 57.2817 17.0936 57.3441C16.914 57.4065 16.7111 57.4378 16.4848 57.4378Z" fill="black"/>
<path d="M21.1089 57.4261C20.9606 57.4261 20.8475 57.4026 20.7694 57.3558C20.6992 57.3168 20.6523 57.2582 20.6289 57.1802C20.6133 57.0943 20.6055 56.9968 20.6055 56.8875V52.2747C20.6055 52.1576 20.6172 52.06 20.6406 51.982C20.664 51.9039 20.7109 51.8493 20.7811 51.818C20.8514 51.779 20.9645 51.7595 21.1207 51.7595C21.2611 51.7595 21.3665 51.779 21.4368 51.818C21.5148 51.8493 21.5655 51.9 21.589 51.9702C21.6202 52.0327 21.6358 52.1068 21.6358 52.1927L21.589 52.5439C21.6436 52.4425 21.706 52.341 21.7763 52.2395C21.8543 52.1381 21.948 52.0483 22.0573 51.9702C22.1743 51.8844 22.3109 51.8141 22.467 51.7595C22.631 51.7049 22.83 51.6776 23.0641 51.6776C23.1812 51.6776 23.2905 51.6893 23.392 51.7127C23.5012 51.7283 23.6027 51.7556 23.6964 51.7946C23.7978 51.8337 23.8837 51.8805 23.9539 51.9351C24.0242 51.982 24.0788 52.0366 24.1178 52.099C24.1647 52.1537 24.1881 52.22 24.1881 52.2981C24.1881 52.4698 24.1334 52.6181 24.0242 52.743C23.9149 52.86 23.8017 52.9186 23.6846 52.9186C23.5832 52.9186 23.509 52.9069 23.4622 52.8835C23.4154 52.8522 23.3685 52.821 23.3217 52.7898C23.2827 52.7586 23.2241 52.7313 23.1461 52.7078C23.068 52.6766 22.9432 52.661 22.7714 52.661C22.6544 52.661 22.5295 52.6844 22.3968 52.7313C22.2719 52.7781 22.1509 52.8483 22.0339 52.942C21.9168 53.0278 21.8192 53.141 21.7412 53.2815C21.6709 53.422 21.6358 53.5859 21.6358 53.7732V56.9109C21.6358 57.0202 21.6241 57.1139 21.6007 57.1919C21.5773 57.27 21.5265 57.3285 21.4485 57.3675C21.3782 57.4065 21.265 57.4261 21.1089 57.4261Z" fill="black"/>
<path d="M28.9081 57.4261C28.7598 57.4261 28.6467 57.4026 28.5686 57.3558C28.4984 57.3168 28.4515 57.2582 28.4281 57.1802C28.4047 57.0943 28.393 56.9968 28.393 56.8875V49.7809C28.393 49.6794 28.4047 49.5897 28.4281 49.5116C28.4593 49.4336 28.514 49.3711 28.592 49.3243C28.6701 49.2775 28.7793 49.2541 28.9198 49.2541H31.4838C31.8585 49.2541 32.2019 49.3126 32.5141 49.4297C32.8341 49.5389 33.1112 49.7107 33.3454 49.9448C33.5873 50.1712 33.7747 50.4482 33.9073 50.7761C34.04 51.1039 34.1064 51.4824 34.1064 51.9117C34.1064 52.3332 34.04 52.7078 33.9073 53.0357C33.7747 53.3635 33.5873 53.6406 33.3454 53.8669C33.1034 54.0854 32.8224 54.2533 32.5024 54.3703C32.1902 54.4874 31.8468 54.546 31.4721 54.546H29.4584V56.8992C29.4584 57.0085 29.4428 57.1021 29.4116 57.1802C29.3882 57.2582 29.3374 57.3168 29.2594 57.3558C29.1891 57.4026 29.072 57.4261 28.9081 57.4261ZM29.4584 53.4805H31.4838C31.796 53.4805 32.0692 53.422 32.3034 53.3049C32.5375 53.18 32.721 53.0005 32.8536 52.7664C32.9863 52.5244 33.0527 52.2317 33.0527 51.8883C33.0527 51.5605 32.9902 51.2795 32.8654 51.0453C32.7405 50.8112 32.557 50.6317 32.3151 50.5068C32.0809 50.3819 31.7999 50.3195 31.4721 50.3195H29.4584V53.4805Z" fill="black"/>
<path d="M37.9183 57.4963C37.5358 57.4963 37.169 57.4222 36.8177 57.2739C36.4743 57.1256 36.166 56.9226 35.8928 56.6651C35.6196 56.3997 35.405 56.0914 35.2489 55.7401C35.0928 55.3889 35.0147 55.0065 35.0147 54.5928C35.0147 54.1869 35.0889 53.8123 35.2372 53.4688C35.3855 53.1176 35.5923 52.8093 35.8577 52.5439C36.1231 52.2786 36.4275 52.0717 36.7709 51.9234C37.1221 51.7673 37.4968 51.6893 37.8948 51.6893C38.4334 51.6893 38.9173 51.818 39.3466 52.0756C39.7837 52.3254 40.131 52.6688 40.3886 53.1059C40.6462 53.543 40.7749 54.0347 40.7749 54.5811C40.7749 55.0104 40.6969 55.4045 40.5408 55.7636C40.3847 56.1148 40.1739 56.4192 39.9086 56.6768C39.6432 56.9343 39.3388 57.1373 38.9954 57.2856C38.6519 57.4261 38.2929 57.4963 37.9183 57.4963ZM37.8948 56.4777C38.2226 56.4777 38.5271 56.3958 38.808 56.2319C39.089 56.068 39.3154 55.8416 39.4871 55.5528C39.6588 55.264 39.7447 54.9362 39.7447 54.5694C39.7447 54.2025 39.6627 53.8786 39.4988 53.5976C39.3427 53.3166 39.1241 53.0981 38.8432 52.942C38.5622 52.7859 38.2422 52.7078 37.8831 52.7078C37.5397 52.7078 37.2275 52.7898 36.9465 52.9537C36.6733 53.1176 36.4509 53.3401 36.2792 53.621C36.1153 53.902 36.0333 54.222 36.0333 54.5811C36.0333 54.9557 36.1192 55.2874 36.2909 55.5762C36.4626 55.8572 36.6889 56.0797 36.9699 56.2436C37.2587 56.3997 37.567 56.4777 37.8948 56.4777Z" fill="black"/>
<path d="M44.5749 57.4495C44.1691 57.4495 43.7866 57.3831 43.4276 57.2504C43.0763 57.1178 42.7641 56.9265 42.4909 56.6768C42.2256 56.427 42.0148 56.1304 41.8587 55.787C41.7104 55.4357 41.6363 55.0377 41.6363 54.5928C41.6363 54.1479 41.7104 53.7537 41.8587 53.4103C42.0148 53.0591 42.2256 52.7586 42.4909 52.5088C42.7563 52.259 43.0646 52.0678 43.4159 51.9351C43.7749 51.8024 44.1534 51.7361 44.5515 51.7361C44.8169 51.7361 45.0784 51.779 45.3359 51.8649C45.5935 51.9429 45.8199 52.0483 46.015 52.181C46.2179 52.3059 46.3623 52.4386 46.4482 52.5791C46.5262 52.6805 46.5809 52.7664 46.6121 52.8366C46.6511 52.8991 46.655 52.9732 46.6238 53.0591C46.5926 53.1215 46.5496 53.18 46.495 53.2347C46.4404 53.2815 46.3857 53.3205 46.3311 53.3518C46.1906 53.461 46.0501 53.4766 45.9096 53.3986C45.8238 53.3127 45.7262 53.2347 45.6169 53.1644C45.5154 53.0864 45.4062 53.0161 45.2891 52.9537C45.172 52.8913 45.051 52.8444 44.9262 52.8132C44.8091 52.7742 44.6842 52.7547 44.5515 52.7547C44.1847 52.7547 43.8608 52.8327 43.5798 52.9888C43.2988 53.1371 43.0802 53.3518 42.9241 53.6327C42.7758 53.9059 42.7017 54.2259 42.7017 54.5928C42.7017 54.9596 42.7758 55.2796 42.9241 55.5528C43.0802 55.826 43.2949 56.0406 43.5681 56.1967C43.849 56.3528 44.1691 56.4309 44.5281 56.4309C44.692 56.4309 44.8481 56.4114 44.9964 56.3724C45.1525 56.3255 45.2969 56.267 45.4296 56.1967C45.5623 56.1187 45.6716 56.0367 45.7574 55.9509C45.8355 55.8962 45.9018 55.8494 45.9564 55.8104C46.0111 55.7714 46.0774 55.7519 46.1555 55.7519C46.2179 55.7519 46.2843 55.7792 46.3545 55.8338C46.4248 55.8806 46.4989 55.9548 46.577 56.0563C46.6394 56.1265 46.6745 56.2006 46.6823 56.2787C46.6979 56.3568 46.6862 56.4309 46.6472 56.5011C46.6082 56.5714 46.5457 56.6416 46.4599 56.7119C46.335 56.8368 46.1672 56.9577 45.9564 57.0748C45.7535 57.1841 45.5311 57.2739 45.2891 57.3441C45.0471 57.4144 44.8091 57.4495 44.5749 57.4495Z" fill="black"/>
<path d="M52.2062 56.5129C52.3545 56.6299 52.4325 56.7431 52.4403 56.8524C52.4559 56.9617 52.4013 57.0904 52.2764 57.2387C52.1828 57.348 52.0969 57.4183 52.0189 57.4495C51.9486 57.4885 51.8745 57.4924 51.7964 57.4612C51.7184 57.4378 51.6286 57.3831 51.5271 57.2973L48.8812 55.143V56.8992C48.8812 57.0085 48.8656 57.1021 48.8344 57.1802C48.8109 57.2582 48.7641 57.3168 48.6939 57.3558C48.6236 57.4026 48.5104 57.4261 48.3543 57.4261C48.2138 57.4261 48.1046 57.4026 48.0265 57.3558C47.9485 57.3168 47.8977 57.2582 47.8743 57.1802C47.8587 57.0943 47.8509 56.9968 47.8509 56.8875V49.6638C47.8509 49.5546 47.8626 49.4609 47.886 49.3828C47.9094 49.3048 47.9602 49.2462 48.0382 49.2072C48.1163 49.1604 48.2255 49.137 48.366 49.137C48.5221 49.137 48.6353 49.1604 48.7056 49.2072C48.7758 49.2462 48.8226 49.3087 48.8461 49.3945C48.8695 49.4726 48.8812 49.5663 48.8812 49.6755V53.8201L50.813 51.9702C50.8988 51.8844 50.9808 51.8259 51.0588 51.7946C51.1447 51.7556 51.2266 51.7478 51.3047 51.7712C51.3905 51.7946 51.4764 51.8571 51.5623 51.9585C51.7027 52.1146 51.7691 52.2473 51.7613 52.3566C51.7613 52.4581 51.691 52.5751 51.5505 52.7078L49.6539 54.4991L52.2062 56.5129Z" fill="black"/>
<path d="M55.8939 57.4846C55.4256 57.4846 55.0081 57.4065 54.6412 57.2504C54.2744 57.0943 53.9622 56.8836 53.7046 56.6182C53.4548 56.345 53.2636 56.0328 53.1309 55.6816C52.9982 55.3304 52.9319 54.9518 52.9319 54.546C52.9319 54.0074 53.0568 53.5274 53.3065 53.1059C53.5563 52.6844 53.8997 52.3527 54.3368 52.1107C54.7817 51.861 55.289 51.7361 55.8588 51.7361C56.2491 51.7361 56.5964 51.7985 56.9008 51.9234C57.213 52.0405 57.4784 52.2005 57.6969 52.4034C57.9155 52.6064 58.0833 52.8327 58.2004 53.0825C58.3174 53.3323 58.376 53.582 58.376 53.8318C58.376 54.2298 58.2823 54.5108 58.095 54.6747C57.9077 54.8308 57.6774 54.9089 57.4042 54.9089H54.0207C54.0129 55.2523 54.1027 55.5489 54.29 55.7987C54.4851 56.0406 54.7271 56.228 55.0159 56.3607C55.3125 56.4933 55.6091 56.5597 55.9056 56.5597C56.1242 56.5597 56.3115 56.548 56.4676 56.5246C56.6237 56.5011 56.7603 56.4699 56.8774 56.4309C56.9945 56.3919 57.0959 56.3528 57.1818 56.3138C57.2676 56.2748 57.3418 56.2358 57.4042 56.1967C57.4745 56.1577 57.5408 56.1304 57.6033 56.1148C57.6735 56.0992 57.7399 56.107 57.8023 56.1382C57.8726 56.1616 57.9272 56.2124 57.9662 56.2904C58.013 56.3528 58.0443 56.4114 58.0599 56.466C58.0755 56.5207 58.0833 56.5792 58.0833 56.6416C58.0833 56.7509 57.9896 56.8719 57.8023 57.0046C57.615 57.1373 57.3535 57.2504 57.0179 57.3441C56.6901 57.4378 56.3154 57.4846 55.8939 57.4846ZM54.0207 54.2181H56.9593C57.1076 54.2181 57.2169 54.1986 57.2872 54.1596C57.3652 54.1206 57.4042 54.0152 57.4042 53.8435C57.4042 53.6249 57.3379 53.4298 57.2052 53.2581C57.0725 53.0786 56.8891 52.9342 56.6549 52.8249C56.4286 52.7156 56.1671 52.661 55.8705 52.661C55.5271 52.661 55.211 52.7313 54.9222 52.8717C54.6412 53.0044 54.4188 53.1879 54.2549 53.422C54.0909 53.6562 54.0129 53.9215 54.0207 54.2181Z" fill="black"/>
<path d="M62.1022 57.4261C61.7354 57.4261 61.4232 57.3909 61.1656 57.3207C60.9159 57.2504 60.709 57.1412 60.5451 56.9929C60.3812 56.8446 60.2641 56.6533 60.1939 56.4192C60.1236 56.1772 60.0885 55.8806 60.0885 55.5294V50.3546C60.0885 50.2453 60.1002 50.1516 60.1236 50.0736C60.1471 49.9955 60.1939 49.937 60.2641 49.898C60.3344 49.8511 60.4437 49.8277 60.5919 49.8277C60.7402 49.8277 60.8534 49.8511 60.9315 49.898C61.0095 49.937 61.0603 49.9955 61.0837 50.0736C61.1071 50.1438 61.1188 50.2336 61.1188 50.3429V55.5294C61.1188 55.7323 61.1344 55.8962 61.1656 56.0211C61.2047 56.1382 61.2593 56.228 61.3295 56.2904C61.4076 56.3528 61.5091 56.3919 61.6339 56.4075C61.7588 56.4231 61.911 56.4309 62.0905 56.4309C62.2154 56.4309 62.3169 56.4426 62.3949 56.466C62.473 56.4894 62.5315 56.5363 62.5706 56.6065C62.6096 56.6768 62.6291 56.7821 62.6291 56.9226C62.6291 57.0709 62.6057 57.1841 62.5588 57.2622C62.5198 57.3324 62.4574 57.3753 62.3715 57.3909C62.2935 57.4144 62.2037 57.4261 62.1022 57.4261ZM59.4797 51.8883L60.6037 51.9L62.231 51.8766C62.3403 51.8766 62.434 51.8883 62.512 51.9117C62.5901 51.9273 62.6486 51.9742 62.6876 52.0522C62.7345 52.1224 62.7579 52.2317 62.7579 52.38C62.7579 52.5283 62.7384 52.6415 62.6993 52.7195C62.6603 52.7898 62.6018 52.8366 62.5237 52.86C62.4457 52.8835 62.352 52.8952 62.2427 52.8952L60.6388 52.8717L59.4563 52.8835C59.2924 52.8835 59.1792 52.8444 59.1168 52.7664C59.0621 52.6883 59.0348 52.5595 59.0348 52.38C59.0348 52.2083 59.0699 52.0834 59.1402 52.0054C59.2104 51.9273 59.3236 51.8883 59.4797 51.8883Z" fill="black"/>
<path d="M69.2426 57.5431C68.946 57.5431 68.665 57.508 68.3996 57.4378C68.1421 57.3675 67.904 57.2739 67.6855 57.1568C67.4747 57.0319 67.2874 56.8953 67.1235 56.747C66.9596 56.5987 66.8308 56.4504 66.7371 56.3021C66.6513 56.1772 66.5966 56.0758 66.5732 55.9977C66.5498 55.9119 66.5537 55.8299 66.5849 55.7519C66.624 55.6738 66.6981 55.5879 66.8074 55.4943C66.9323 55.4006 67.0415 55.3577 67.1352 55.3655C67.2289 55.3655 67.3147 55.4006 67.3928 55.4709C67.4786 55.5411 67.5645 55.6348 67.6503 55.7519C67.8455 56.0172 68.0835 56.2124 68.3645 56.3372C68.6455 56.4543 68.9226 56.5129 69.1958 56.5129C69.547 56.5129 69.8592 56.466 70.1324 56.3724C70.4056 56.2787 70.6202 56.1382 70.7763 55.9509C70.9402 55.7558 71.0222 55.506 71.0222 55.2016C71.0222 54.9518 70.9597 54.7411 70.8349 54.5694C70.71 54.3977 70.5422 54.2533 70.3314 54.1362C70.1207 54.0113 69.8865 53.9059 69.629 53.8201C69.3714 53.7264 69.1099 53.6367 68.8445 53.5508C68.6338 53.4805 68.427 53.4025 68.224 53.3166C68.0211 53.223 67.8299 53.1215 67.6503 53.0122C67.4708 52.8952 67.3108 52.7586 67.1703 52.6025C67.0376 52.4464 66.9323 52.2629 66.8542 52.0522C66.784 51.8415 66.7488 51.5956 66.7488 51.3146C66.7488 50.8853 66.8503 50.5068 67.0533 50.179C67.264 49.8511 67.5567 49.5975 67.9313 49.418C68.306 49.2306 68.7392 49.137 69.2309 49.137C69.5197 49.137 69.7851 49.1643 70.027 49.2189C70.269 49.2736 70.4836 49.3477 70.6709 49.4414C70.8583 49.5272 71.0183 49.6209 71.151 49.7224C71.2837 49.816 71.3851 49.9058 71.4554 49.9916C71.5959 50.1399 71.6739 50.2648 71.6895 50.3663C71.7051 50.4678 71.6466 50.5926 71.5139 50.7409C71.389 50.8814 71.268 50.9556 71.151 50.9634C71.0339 50.9712 70.9051 50.9166 70.7646 50.7995C70.6163 50.6278 70.4602 50.4951 70.2963 50.4014C70.1402 50.3077 69.9724 50.2453 69.7929 50.2141C69.6211 50.1751 69.4299 50.1555 69.2192 50.1555C69.0163 50.1555 68.825 50.1829 68.6455 50.2375C68.4738 50.2843 68.3216 50.3585 68.1889 50.4599C68.064 50.5614 67.9665 50.6863 67.8962 50.8346C67.826 50.9751 67.7908 51.139 67.7908 51.3263C67.7908 51.5371 67.8455 51.7166 67.9548 51.8649C68.0718 52.0132 68.224 52.142 68.4114 52.2512C68.5987 52.3527 68.8094 52.4464 69.0436 52.5322C69.2777 52.6103 69.5236 52.6883 69.7812 52.7664C70.0621 52.8522 70.3392 52.9576 70.6124 53.0825C70.8856 53.1996 71.1315 53.3479 71.35 53.5274C71.5685 53.6991 71.7442 53.9176 71.8768 54.183C72.0095 54.4484 72.0759 54.7762 72.0759 55.1665C72.0759 55.5567 71.9978 55.9001 71.8417 56.1967C71.6934 56.4933 71.4866 56.7431 71.2212 56.946C70.9558 57.1412 70.6514 57.2895 70.308 57.3909C69.9724 57.4924 69.6172 57.5431 69.2426 57.5431Z" fill="black"/>
<path d="M75.538 57.4378C75.1946 57.4378 74.8745 57.3753 74.578 57.2504C74.2892 57.1256 74.0355 56.9499 73.8169 56.7236C73.5984 56.4972 73.4267 56.2241 73.3018 55.9041C73.1847 55.584 73.1262 55.2211 73.1262 54.8152V52.2747C73.1262 52.1654 73.1379 52.0717 73.1613 51.9937C73.1847 51.9156 73.2316 51.8571 73.3018 51.818C73.3799 51.7712 73.493 51.7478 73.6413 51.7478C73.7896 51.7478 73.8989 51.7712 73.9691 51.818C74.0472 51.8649 74.0979 51.9273 74.1214 52.0054C74.1448 52.0834 74.1565 52.1771 74.1565 52.2864V54.8269C74.1565 55.147 74.2111 55.4318 74.3204 55.6816C74.4297 55.9236 74.5936 56.1109 74.8121 56.2436C75.0385 56.3763 75.3116 56.4426 75.6317 56.4426C75.9595 56.4426 76.2405 56.3763 76.4746 56.2436C76.7166 56.1109 76.9 55.9236 77.0249 55.6816C77.1576 55.4318 77.2239 55.147 77.2239 54.8269V52.2747C77.2239 52.1654 77.2356 52.0717 77.259 51.9937C77.2824 51.9156 77.3293 51.8571 77.3995 51.818C77.4776 51.7712 77.5907 51.7478 77.739 51.7478C77.8873 51.7478 77.9966 51.7712 78.0669 51.818C78.1449 51.8649 78.1917 51.9273 78.2074 52.0054C78.2308 52.0834 78.2425 52.1771 78.2425 52.2864V56.9343C78.2425 57.028 78.2308 57.1139 78.2074 57.1919C78.1917 57.2622 78.1449 57.3168 78.0669 57.3558C77.9966 57.3948 77.8873 57.4144 77.739 57.4144C77.6298 57.4144 77.54 57.4026 77.4698 57.3792C77.4073 57.3558 77.3605 57.3246 77.3293 57.2856C77.2981 57.2465 77.2746 57.2036 77.259 57.1568C77.2512 57.1021 77.2473 57.0475 77.2473 56.9929L77.2942 56.4894C77.2161 56.5831 77.1224 56.6846 77.0132 56.7938C76.9039 56.9031 76.7751 57.0085 76.6268 57.11C76.4863 57.2036 76.3263 57.2817 76.1468 57.3441C75.9673 57.4065 75.7643 57.4378 75.538 57.4378Z" fill="black"/>
<path d="M82.5154 57.3792C82.133 57.3792 81.7857 57.309 81.4734 57.1685C81.1612 57.028 80.8959 56.8329 80.6773 56.5831C80.4588 56.3255 80.2871 56.025 80.1622 55.6816C80.0451 55.3382 79.9905 54.9596 79.9983 54.546C79.9983 54.1401 80.0568 53.7654 80.1739 53.422C80.291 53.0786 80.4588 52.782 80.6773 52.5322C80.9037 52.2747 81.169 52.0795 81.4734 51.9468C81.7857 51.8063 82.133 51.7361 82.5154 51.7361C82.8745 51.7361 83.2101 51.8063 83.5223 51.9468C83.8423 52.0873 84.1194 52.2864 84.3536 52.5439C84.5955 52.7937 84.7828 53.0942 84.9155 53.4454C85.056 53.7967 85.1263 54.1752 85.1263 54.5811C85.1263 54.9869 85.056 55.3616 84.9155 55.705C84.7828 56.0484 84.5955 56.345 84.3536 56.5948C84.1194 56.8446 83.8423 57.0397 83.5223 57.1802C83.2101 57.3129 82.8745 57.3792 82.5154 57.3792ZM80.0802 59.7325C79.9319 59.7325 79.8188 59.7091 79.7407 59.6622C79.6705 59.6232 79.6197 59.5647 79.5885 59.4866C79.5651 59.4086 79.5534 59.3149 79.5534 59.2056V52.2864C79.5534 52.1771 79.5651 52.0834 79.5885 52.0054C79.6119 51.9273 79.6588 51.8688 79.729 51.8298C79.807 51.7829 79.9202 51.7595 80.0685 51.7595C80.2402 51.7595 80.3651 51.7868 80.4432 51.8415C80.529 51.8961 80.5798 51.9937 80.5954 52.1342V59.1939C80.6032 59.3032 80.5954 59.3969 80.572 59.4749C80.5485 59.5608 80.4978 59.6232 80.4198 59.6622C80.3495 59.7091 80.2363 59.7325 80.0802 59.7325ZM82.3632 56.4192C82.6911 56.4192 82.9877 56.3411 83.253 56.185C83.5184 56.0211 83.7252 55.7987 83.8735 55.5177C84.0296 55.2367 84.1077 54.9167 84.1077 54.5577C84.1077 54.1908 84.0296 53.8708 83.8735 53.5976C83.7252 53.3244 83.5184 53.1137 83.253 52.9654C82.9955 52.8093 82.6989 52.7313 82.3632 52.7313C82.0354 52.7313 81.7388 52.8093 81.4734 52.9654C81.2159 53.1215 81.009 53.3362 80.8529 53.6093C80.7046 53.8825 80.6305 54.1986 80.6305 54.5577C80.6305 54.9167 80.7046 55.2367 80.8529 55.5177C81.009 55.7987 81.2159 56.0211 81.4734 56.185C81.7388 56.3411 82.0354 56.4192 82.3632 56.4192Z" fill="black"/>
<path d="M89.0392 57.4846C88.5709 57.4846 88.1533 57.4065 87.7865 57.2504C87.4196 57.0943 87.1074 56.8836 86.8499 56.6182C86.6001 56.345 86.4089 56.0328 86.2762 55.6816C86.1435 55.3304 86.0771 54.9518 86.0771 54.546C86.0771 54.0074 86.202 53.5274 86.4518 53.1059C86.7016 52.6844 87.045 52.3527 87.4821 52.1107C87.927 51.861 88.4343 51.7361 89.0041 51.7361C89.3943 51.7361 89.7417 51.7985 90.0461 51.9234C90.3583 52.0405 90.6237 52.2005 90.8422 52.4034C91.0607 52.6064 91.2286 52.8327 91.3456 53.0825C91.4627 53.3323 91.5213 53.582 91.5213 53.8318C91.5213 54.2298 91.4276 54.5108 91.2403 54.6747C91.0529 54.8308 90.8227 54.9089 90.5495 54.9089H87.166C87.1582 55.2523 87.2479 55.5489 87.4352 55.7987C87.6304 56.0406 87.8723 56.228 88.1611 56.3607C88.4577 56.4933 88.7543 56.5597 89.0509 56.5597C89.2695 56.5597 89.4568 56.548 89.6129 56.5246C89.769 56.5011 89.9056 56.4699 90.0227 56.4309C90.1397 56.3919 90.2412 56.3528 90.3271 56.3138C90.4129 56.2748 90.4871 56.2358 90.5495 56.1967C90.6198 56.1577 90.6861 56.1304 90.7485 56.1148C90.8188 56.0992 90.8851 56.107 90.9476 56.1382C91.0178 56.1616 91.0725 56.2124 91.1115 56.2904C91.1583 56.3528 91.1895 56.4114 91.2051 56.466C91.2208 56.5207 91.2286 56.5792 91.2286 56.6416C91.2286 56.7509 91.1349 56.8719 90.9476 57.0046C90.7602 57.1373 90.4988 57.2504 90.1632 57.3441C89.8353 57.4378 89.4607 57.4846 89.0392 57.4846ZM87.166 54.2181H90.1046C90.2529 54.2181 90.3622 54.1986 90.4324 54.1596C90.5105 54.1206 90.5495 54.0152 90.5495 53.8435C90.5495 53.6249 90.4832 53.4298 90.3505 53.2581C90.2178 53.0786 90.0344 52.9342 89.8002 52.8249C89.5739 52.7156 89.3124 52.661 89.0158 52.661C88.6724 52.661 88.3563 52.7313 88.0675 52.8717C87.7865 53.0044 87.564 53.1879 87.4001 53.422C87.2362 53.6562 87.1582 53.9215 87.166 54.2181Z" fill="black"/>
<path d="M93.2076 57.4261C93.0593 57.4261 92.9462 57.4026 92.8681 57.3558C92.7979 57.3168 92.751 57.2582 92.7276 57.1802C92.712 57.0943 92.7042 56.9968 92.7042 56.8875V52.2747C92.7042 52.1576 92.7159 52.06 92.7393 51.982C92.7627 51.9039 92.8096 51.8493 92.8798 51.818C92.9501 51.779 93.0632 51.7595 93.2193 51.7595C93.3598 51.7595 93.4652 51.779 93.5354 51.818C93.6135 51.8493 93.6642 51.9 93.6877 51.9702C93.7189 52.0327 93.7345 52.1068 93.7345 52.1927L93.6877 52.5439C93.7423 52.4425 93.8047 52.341 93.875 52.2395C93.953 52.1381 94.0467 52.0483 94.156 51.9702C94.273 51.8844 94.4096 51.8141 94.5657 51.7595C94.7296 51.7049 94.9287 51.6776 95.1628 51.6776C95.2799 51.6776 95.3892 51.6893 95.4906 51.7127C95.5999 51.7283 95.7014 51.7556 95.795 51.7946C95.8965 51.8337 95.9824 51.8805 96.0526 51.9351C96.1229 51.982 96.1775 52.0366 96.2165 52.099C96.2634 52.1537 96.2868 52.22 96.2868 52.2981C96.2868 52.4698 96.2321 52.6181 96.1229 52.743C96.0136 52.86 95.9004 52.9186 95.7833 52.9186C95.6819 52.9186 95.6077 52.9069 95.5609 52.8835C95.5141 52.8522 95.4672 52.821 95.4204 52.7898C95.3814 52.7586 95.3228 52.7313 95.2448 52.7078C95.1667 52.6766 95.0418 52.661 94.8701 52.661C94.7531 52.661 94.6282 52.6844 94.4955 52.7313C94.3706 52.7781 94.2496 52.8483 94.1325 52.942C94.0155 53.0278 93.9179 53.141 93.8399 53.2815C93.7696 53.422 93.7345 53.5859 93.7345 53.7732V56.9109C93.7345 57.0202 93.7228 57.1139 93.6994 57.1919C93.6759 57.27 93.6252 57.3285 93.5472 57.3675C93.4769 57.4065 93.3637 57.4261 93.2076 57.4261Z" fill="black"/>
<path d="M97.9522 57.4261C97.8039 57.4261 97.6946 57.4026 97.6244 57.3558C97.5541 57.309 97.5073 57.2465 97.4839 57.1685C97.4605 57.0904 97.4488 56.9968 97.4488 56.8875V52.2512C97.4488 52.142 97.4605 52.0522 97.4839 51.982C97.5073 51.9117 97.5541 51.8571 97.6244 51.818C97.7024 51.779 97.8156 51.7595 97.9639 51.7595C98.1356 51.7595 98.2566 51.7946 98.3268 51.8649C98.4049 51.9273 98.4439 52.0405 98.4439 52.2044L98.3971 52.7078C98.4517 52.5908 98.5337 52.4737 98.643 52.3566C98.7522 52.2395 98.881 52.1342 99.0293 52.0405C99.1854 51.9468 99.3493 51.8727 99.521 51.818C99.6927 51.7634 99.8684 51.7361 100.048 51.7361C100.321 51.7361 100.563 51.7868 100.774 51.8883C100.992 51.982 101.187 52.1185 101.359 52.2981C101.531 52.4776 101.675 52.7 101.792 52.9654C101.948 52.7078 102.112 52.4893 102.284 52.3098C102.464 52.1224 102.667 51.982 102.893 51.8883C103.119 51.7868 103.373 51.7361 103.654 51.7361C104.099 51.7361 104.47 51.8493 104.766 52.0756C105.071 52.2942 105.297 52.6064 105.445 53.0122C105.601 53.4103 105.679 53.8903 105.679 54.4523V56.8992C105.679 57.0085 105.668 57.1021 105.644 57.1802C105.629 57.2582 105.582 57.3168 105.504 57.3558C105.433 57.4026 105.32 57.4261 105.164 57.4261C105.016 57.4261 104.903 57.4026 104.825 57.3558C104.754 57.309 104.708 57.2465 104.684 57.1685C104.661 57.0904 104.649 56.9968 104.649 56.8875V54.4406C104.649 54.0894 104.606 53.7889 104.52 53.5391C104.442 53.2815 104.317 53.0825 104.146 52.942C103.982 52.8015 103.767 52.7313 103.502 52.7313C103.221 52.7313 102.971 52.8015 102.752 52.942C102.542 53.0747 102.378 53.2698 102.261 53.5274C102.144 53.7849 102.085 54.0894 102.085 54.4406V56.9109C102.085 57.028 102.062 57.1295 102.015 57.2153C101.968 57.3012 101.898 57.3597 101.804 57.3909C101.71 57.43 101.597 57.4378 101.465 57.4144C101.34 57.3987 101.246 57.3675 101.184 57.3207C101.121 57.2739 101.082 57.2153 101.066 57.1451C101.051 57.067 101.043 56.9812 101.043 56.8875V54.4406C101.043 54.0894 101 53.7889 100.914 53.5391C100.836 53.2815 100.711 53.0825 100.54 52.942C100.376 52.8015 100.161 52.7313 99.8957 52.7313C99.6147 52.7313 99.3649 52.8054 99.1464 52.9537C98.9356 53.0942 98.7717 53.2932 98.6547 53.5508C98.5376 53.8084 98.479 54.105 98.479 54.4406V56.8992C98.479 57.0085 98.4673 57.1021 98.4439 57.1802C98.4205 57.2582 98.3698 57.3168 98.2917 57.3558C98.2215 57.4026 98.1083 57.4261 97.9522 57.4261Z" fill="black"/>
<path d="M111.945 57.4144C111.773 57.4144 111.648 57.3792 111.57 57.309C111.5 57.2387 111.457 57.1295 111.442 56.9812L111.488 56.3958C111.41 56.5207 111.289 56.6651 111.125 56.829C110.962 56.9851 110.747 57.1256 110.481 57.2504C110.216 57.3675 109.892 57.4261 109.51 57.4261C109.135 57.4261 108.784 57.3519 108.456 57.2036C108.136 57.0553 107.851 56.8485 107.601 56.5831C107.359 56.3177 107.168 56.0133 107.028 55.6699C106.895 55.3265 106.829 54.9596 106.829 54.5694C106.829 54.1869 106.895 53.8279 107.028 53.4923C107.168 53.1488 107.363 52.8483 107.613 52.5908C107.863 52.3332 108.148 52.1303 108.468 51.982C108.796 51.8337 109.143 51.7595 109.51 51.7595C109.853 51.7595 110.146 51.8063 110.388 51.9C110.63 51.9859 110.837 52.1029 111.008 52.2512C111.188 52.3917 111.344 52.5517 111.477 52.7313L111.453 52.2395C111.445 52.0678 111.481 51.9468 111.559 51.8766C111.644 51.7985 111.777 51.7595 111.957 51.7595C112.105 51.7595 112.21 51.7829 112.273 51.8298C112.343 51.8766 112.39 51.9429 112.413 52.0288C112.437 52.1146 112.448 52.22 112.448 52.3449V56.8641C112.448 56.9734 112.437 57.0709 112.413 57.1568C112.39 57.2426 112.343 57.3051 112.273 57.3441C112.203 57.3909 112.093 57.4144 111.945 57.4144ZM109.685 56.4426C109.998 56.4426 110.282 56.3607 110.54 56.1967C110.805 56.0328 111.012 55.8143 111.161 55.5411C111.317 55.2601 111.395 54.9401 111.395 54.5811C111.395 54.2142 111.313 53.8942 111.149 53.621C110.993 53.3401 110.782 53.1215 110.517 52.9654C110.259 52.8015 109.974 52.7195 109.662 52.7195C109.295 52.7195 108.975 52.8054 108.702 52.9771C108.437 53.141 108.226 53.3635 108.07 53.6445C107.914 53.9254 107.836 54.2455 107.836 54.6045C107.836 54.9557 107.914 55.2718 108.07 55.5528C108.226 55.826 108.44 56.0445 108.714 56.2085C108.995 56.3646 109.319 56.4426 109.685 56.4426Z" fill="black"/>
<path d="M114.359 57.4261C114.211 57.4261 114.098 57.4026 114.02 57.3558C113.95 57.3168 113.903 57.2582 113.879 57.1802C113.864 57.0943 113.856 56.9968 113.856 56.8875V52.2747C113.856 52.1576 113.868 52.06 113.891 51.982C113.914 51.9039 113.961 51.8493 114.032 51.818C114.102 51.779 114.215 51.7595 114.371 51.7595C114.512 51.7595 114.617 51.779 114.687 51.818C114.765 51.8493 114.816 51.9 114.839 51.9702C114.871 52.0327 114.886 52.1068 114.886 52.1927L114.839 52.5439C114.894 52.4425 114.956 52.341 115.027 52.2395C115.105 52.1381 115.198 52.0483 115.308 51.9702C115.425 51.8844 115.561 51.8141 115.717 51.7595C115.881 51.7049 116.08 51.6776 116.315 51.6776C116.432 51.6776 116.541 51.6893 116.642 51.7127C116.752 51.7283 116.853 51.7556 116.947 51.7946C117.048 51.8337 117.134 51.8805 117.204 51.9351C117.275 51.982 117.329 52.0366 117.368 52.099C117.415 52.1537 117.438 52.22 117.438 52.2981C117.438 52.4698 117.384 52.6181 117.275 52.743C117.165 52.86 117.052 52.9186 116.935 52.9186C116.834 52.9186 116.759 52.9069 116.713 52.8835C116.666 52.8522 116.619 52.821 116.572 52.7898C116.533 52.7586 116.475 52.7313 116.396 52.7078C116.318 52.6766 116.194 52.661 116.022 52.661C115.905 52.661 115.78 52.6844 115.647 52.7313C115.522 52.7781 115.401 52.8483 115.284 52.942C115.167 53.0278 115.07 53.141 114.992 53.2815C114.921 53.422 114.886 53.5859 114.886 53.7732V56.9109C114.886 57.0202 114.874 57.1139 114.851 57.1919C114.828 57.27 114.777 57.3285 114.699 57.3675C114.629 57.4065 114.515 57.4261 114.359 57.4261Z" fill="black"/>
<path d="M122.956 56.5129C123.104 56.6299 123.182 56.7431 123.19 56.8524C123.205 56.9617 123.151 57.0904 123.026 57.2387C122.932 57.348 122.846 57.4183 122.768 57.4495C122.698 57.4885 122.624 57.4924 122.546 57.4612C122.468 57.4378 122.378 57.3831 122.277 57.2973L119.631 55.143V56.8992C119.631 57.0085 119.615 57.1021 119.584 57.1802C119.56 57.2582 119.514 57.3168 119.443 57.3558C119.373 57.4026 119.26 57.4261 119.104 57.4261C118.963 57.4261 118.854 57.4026 118.776 57.3558C118.698 57.3168 118.647 57.2582 118.624 57.1802C118.608 57.0943 118.6 56.9968 118.6 56.8875V49.6638C118.6 49.5546 118.612 49.4609 118.636 49.3828C118.659 49.3048 118.71 49.2462 118.788 49.2072C118.866 49.1604 118.975 49.137 119.116 49.137C119.272 49.137 119.385 49.1604 119.455 49.2072C119.525 49.2462 119.572 49.3087 119.596 49.3945C119.619 49.4726 119.631 49.5663 119.631 49.6755V53.8201L121.563 51.9702C121.648 51.8844 121.73 51.8259 121.808 51.7946C121.894 51.7556 121.976 51.7478 122.054 51.7712C122.14 51.7946 122.226 51.8571 122.312 51.9585C122.452 52.1146 122.519 52.2473 122.511 52.3566C122.511 52.4581 122.441 52.5751 122.3 52.7078L120.403 54.4991L122.956 56.5129Z" fill="black"/>
<path d="M126.643 57.4846C126.175 57.4846 125.758 57.4065 125.391 57.2504C125.024 57.0943 124.712 56.8836 124.454 56.6182C124.204 56.345 124.013 56.0328 123.88 55.6816C123.748 55.3304 123.681 54.9518 123.681 54.546C123.681 54.0074 123.806 53.5274 124.056 53.1059C124.306 52.6844 124.649 52.3527 125.086 52.1107C125.531 51.861 126.039 51.7361 126.608 51.7361C126.999 51.7361 127.346 51.7985 127.65 51.9234C127.963 52.0405 128.228 52.2005 128.446 52.4034C128.665 52.6064 128.833 52.8327 128.95 53.0825C129.067 53.3323 129.126 53.582 129.126 53.8318C129.126 54.2298 129.032 54.5108 128.845 54.6747C128.657 54.8308 128.427 54.9089 128.154 54.9089H124.77C124.762 55.2523 124.852 55.5489 125.04 55.7987C125.235 56.0406 125.477 56.228 125.765 56.3607C126.062 56.4933 126.359 56.5597 126.655 56.5597C126.874 56.5597 127.061 56.548 127.217 56.5246C127.373 56.5011 127.51 56.4699 127.627 56.4309C127.744 56.3919 127.845 56.3528 127.931 56.3138C128.017 56.2748 128.091 56.2358 128.154 56.1967C128.224 56.1577 128.29 56.1304 128.353 56.1148C128.423 56.0992 128.489 56.107 128.552 56.1382C128.622 56.1616 128.677 56.2124 128.716 56.2904C128.763 56.3528 128.794 56.4114 128.809 56.466C128.825 56.5207 128.833 56.5792 128.833 56.6416C128.833 56.7509 128.739 56.8719 128.552 57.0046C128.365 57.1373 128.103 57.2504 127.767 57.3441C127.44 57.4378 127.065 57.4846 126.643 57.4846ZM124.77 54.2181H127.709C127.857 54.2181 127.966 54.1986 128.037 54.1596C128.115 54.1206 128.154 54.0152 128.154 53.8435C128.154 53.6249 128.087 53.4298 127.955 53.2581C127.822 53.0786 127.639 52.9342 127.404 52.8249C127.178 52.7156 126.917 52.661 126.62 52.661C126.277 52.661 125.961 52.7313 125.672 52.8717C125.391 53.0044 125.168 53.1879 125.004 53.422C124.84 53.6562 124.762 53.9215 124.77 54.2181Z" fill="black"/>
<path d="M132.852 57.4261C132.485 57.4261 132.173 57.3909 131.915 57.3207C131.665 57.2504 131.459 57.1412 131.295 56.9929C131.131 56.8446 131.014 56.6533 130.943 56.4192C130.873 56.1772 130.838 55.8806 130.838 55.5294V50.3546C130.838 50.2453 130.85 50.1516 130.873 50.0736C130.897 49.9955 130.943 49.937 131.014 49.898C131.084 49.8511 131.193 49.8277 131.341 49.8277C131.49 49.8277 131.603 49.8511 131.681 49.898C131.759 49.937 131.81 49.9955 131.833 50.0736C131.857 50.1438 131.868 50.2336 131.868 50.3429V55.5294C131.868 55.7323 131.884 55.8962 131.915 56.0211C131.954 56.1382 132.009 56.228 132.079 56.2904C132.157 56.3528 132.259 56.3919 132.383 56.4075C132.508 56.4231 132.661 56.4309 132.84 56.4309C132.965 56.4309 133.066 56.4426 133.144 56.466C133.223 56.4894 133.281 56.5363 133.32 56.6065C133.359 56.6768 133.379 56.7821 133.379 56.9226C133.379 57.0709 133.355 57.1841 133.308 57.2622C133.269 57.3324 133.207 57.3753 133.121 57.3909C133.043 57.4144 132.953 57.4261 132.852 57.4261ZM130.229 51.8883L131.353 51.9L132.981 51.8766C133.09 51.8766 133.184 51.8883 133.262 51.9117C133.34 51.9273 133.398 51.9742 133.437 52.0522C133.484 52.1224 133.507 52.2317 133.507 52.38C133.507 52.5283 133.488 52.6415 133.449 52.7195C133.41 52.7898 133.351 52.8366 133.273 52.86C133.195 52.8835 133.102 52.8952 132.992 52.8952L131.388 52.8717L130.206 52.8835C130.042 52.8835 129.929 52.8444 129.866 52.7664C129.812 52.6883 129.784 52.5595 129.784 52.38C129.784 52.2083 129.819 52.0834 129.89 52.0054C129.96 51.9273 130.073 51.8883 130.229 51.8883Z" fill="black"/>
<path d="M204.147 1.44555C206.508 -0.614916 209.031 -0.410663 211.715 2.0583C211.877 2.20644 212.068 2.28051 212.288 2.28051C226.118 2.28949 239.953 2.29173 253.793 2.28724C257.328 2.28724 258.251 8.34069 253.281 8.34742C239.698 8.35191 226.114 8.35191 212.53 8.34742C212.301 8.34742 212.113 8.43271 211.964 8.6033C206.631 14.9261 198.262 6.58997 204.147 1.44555Z" fill="#242021"/>
<path d="M157.833 9.72102C157.396 6.9468 158.278 4.83248 161.342 4.82574C173.583 4.8033 185.823 4.80105 198.06 4.819C198.289 4.819 198.401 4.93572 198.396 5.16915C198.365 7.10841 198.892 8.87484 199.979 10.4684C200.163 10.7378 200.091 10.8725 199.763 10.8725H164.897C164.511 10.8725 164.347 11.0632 164.405 11.4448C166.327 24.2071 168.23 37.0367 170.115 49.9337C170.533 52.8157 172.869 53.6169 175.63 53.6169C196.8 53.6349 217.973 53.6371 239.148 53.6237C241.767 53.6237 243.141 51.6709 243.524 49.1257C245.356 36.9514 247.181 24.7795 248.999 12.6097C249.035 12.3673 249.174 12.2439 249.416 12.2394L254.985 12.172C255.142 12.1675 255.209 12.2416 255.187 12.3942C253.346 24.7211 251.51 37.0524 249.679 49.3883C248.527 57.1453 244.38 59.6839 236.852 59.6839C217.338 59.6928 197.826 59.6951 178.317 59.6906C168.648 59.6906 165.059 57.6167 163.665 48.1493C161.775 35.3332 159.831 22.5237 157.833 9.72102Z" fill="#242021"/>
<rect x="219.352" y="25.4433" width="6.35093" height="20.6405" rx="3.17547" fill="#DF1C26"/>
<rect x="205.063" y="25.4433" width="6.35093" height="20.6405" rx="3.17547" fill="#DF1C26"/>
<rect x="189.185" y="25.4433" width="6.35093" height="20.6405" rx="3.17547" fill="#DF1C26"/>
</svg>
